<svg width="48" height="48" viewBox="0 0 48 48" fill="none" xmlns="http://www.w3.org/2000/svg">
<rect width="48" height="48" rx="24" fill="#111204"/>
<path d="M37 12.7443V34.4C37 38.0554 35.0534 40 31.3988 40L18.1543 39.991V14.848L28.9373 14.8419C29.2515 14.8419 29.5529 14.9667 29.7751 15.1887C29.9973 15.4107 30.1221 15.7119 30.1221 16.0259V32.6688C30.1218 32.8922 30.0336 33.1066 29.8766 33.2657C29.7196 33.4248 29.5064 33.5159 29.2828 33.5194L24.9663 33.5136L24.9813 20.9178C24.9816 20.6679 24.8828 20.428 24.7065 20.2508C24.5303 20.0735 24.2909 19.9732 24.0408 19.9718H23.4219V34.8669H23.4308L23.4337 34.8848L23.4545 34.8669H30.3072C31.319 34.8669 31.8637 34.3613 31.8637 33.3114L31.8609 14.5379C31.8607 14.3434 31.8221 14.1507 31.7473 13.9711C31.6726 13.7914 31.5631 13.6283 31.4251 13.491C31.2872 13.3537 31.1235 13.2449 30.9434 13.1709C30.7633 13.097 30.5704 13.0592 30.3757 13.0598L16.5657 13.0896V39.9978H15.2384C14.1143 39.9978 13.0363 39.5515 12.2414 38.7572C11.4466 37.9629 11 36.8856 11 35.7622V12.2506C10.998 11.6932 11.1062 11.1408 11.3182 10.6253C11.5303 10.1097 11.8421 9.64109 12.2357 9.2462C12.6294 8.85131 13.0972 8.53797 13.6123 8.32412C14.1274 8.11027 14.6797 8.00012 15.2375 8H31.3985C35.0531 8 37 9.088 37 12.7443Z" fill="#D5DB56"/>
</svg>
